<?xml version="1.0" encoding="UTF-8"?>
<svg xmlns="http://www.w3.org/2000/svg" width="500" height="500" viewBox="0 0 500 500">
<g transform="translate(0.000000,500.000000) scale(0.100000,-0.100000)"
fill="#FEFEFE" stroke="none">
<path d="M3625 3869 c-178 -19 -329 -67 -463 -149 -42 -25 -162 -122 -182
-147 -110 -133 -159 -223 -198 -363 -26 -93 -29 -120 -27 -225 2 -155 7 -183
52 -295 60 -149 171 -259 343 -342 73 -35 121 -50 265 -83 175 -41 179 -43
208 -76 l29 -31 -21 -21 c-29 -29 -136 -33 -236 -7 -97 25 -238 95 -374 187
-76 51 -117 22 -175 -124 -21 -54 -44 -111 -52 -128 -7 -16 -36 -86 -65 -155
-114 -274 -113 -272 -74 -314 21 -23 231 -136 253 -136 4 0 18 -6 32 -13 14
-8 34 -16 45 -19 11 -4 58 -18 105 -32 47 -15 98 -29 114 -32 16 -3 33 -7 36
-9 4 -3 25 -7 46 -10 22 -3 71 -11 109 -17 102 -16 313 -13 445 7 63 10 120
21 125 25 6 4 34 15 64 24 64 21 216 96 248 122 12 11 35 29 50 41 185 143
297 341 328 578 7 54 7 220 -1 249 -4 16 -7 36 -8 45 -3 39 -50 155 -85 208
-39 60 -146 173 -185 195 -120 68 -186 93 -366 136 -158 38 -200 52 -240 78
-42 28 -44 32 -32 51 19 29 81 35 207 18 65 -9 182 -60 285 -125 78 -49 124
-39 157 37 44 96 83 192 83 200 0 4 11 30 24 58 13 27 34 75 46 105 12 30 30
73 40 95 47 109 49 137 15 176 -17 19 -86 54 -220 114 -29 12 -113 39 -225 70
-136 37 -354 52 -525 34z"/>
<path d="M483 3812 c-36 -14 -43 -20 -48 -51 -3 -20 -4 -373 -2 -786 3 -659 5
-761 20 -840 45 -234 103 -349 252 -500 51 -52 165 -145 178 -145 2 0 37 -18
78 -40 138 -77 365 -130 569 -134 83 -2 130 1 275 19 105 12 299 80 388 135
26 16 52 30 57 30 14 0 130 97 184 154 120 126 185 259 227 462 23 107 23 124
27 859 2 514 0 761 -7 786 -19 65 -21 65 -473 64 -221 -1 -412 -4 -424 -8 -11
-4 -28 -23 -37 -42 -15 -32 -17 -99 -17 -706 0 -746 -3 -796 -59 -852 -36 -36
-90 -49 -155 -35 -42 8 -56 17 -78 47 -14 20 -31 61 -36 91 -7 33 -11 325 -12
739 -1 768 2 742 -69 760 -20 5 -207 9 -416 8 -315 0 -387 -3 -422 -15z"/>
</g>
<g transform="translate(0.000000,500.000000) scale(0.100000,-0.100000)"
fill="#A3A3A3" stroke="none">
<path d="M3590 3825 c-127 -21 -237 -53 -305 -89 -16 -9 -34 -16 -38 -16 -4 0
-43 -23 -85 -52 -234 -157 -362 -392 -365 -668 -2 -156 9 -212 66 -328 49 -99
115 -172 212 -233 113 -72 175 -94 430 -153 174 -40 234 -121 142 -190 -24
-18 -42 -21 -125 -21 -147 0 -263 44 -482 179 -41 25 -80 46 -87 46 -12 0 -69
-111 -96 -190 -9 -25 -39 -99 -67 -165 -87 -202 -120 -298 -108 -319 12 -21
223 -125 318 -156 36 -11 73 -26 83 -31 10 -5 82 -24 160 -41 127 -27 161 -31
322 -32 181 -1 287 6 341 23 16 5 56 17 89 27 70 21 211 91 275 136 178 127
306 331 341 545 17 105 12 247 -11 328 -74 262 -258 419 -560 481 -47 9 -89
21 -94 25 -6 5 -21 9 -34 9 -13 0 -38 6 -55 14 -18 8 -44 17 -58 20 -37 8 -91
47 -109 79 -17 31 -10 49 32 80 48 36 234 30 310 -9 14 -8 32 -14 39 -14 8 0
62 -27 121 -60 59 -33 113 -60 121 -60 12 0 67 96 67 115 0 5 26 65 62 145 11
25 24 56 28 70 5 14 29 74 54 135 26 60 48 123 49 139 2 27 -4 32 -73 68 -65
32 -122 58 -140 62 -3 1 -25 9 -50 18 -72 27 -178 55 -270 73 -107 21 -351 26
-450 10z"/>
<path d="M535 3780 c-47 -5 -50 -7 -56 -38 -11 -54 -10 -1261 2 -1432 15 -244
50 -369 144 -514 46 -72 150 -179 225 -232 133 -95 295 -158 492 -191 24 -4
126 -7 228 -7 169 1 228 7 355 38 131 31 319 131 428 227 96 84 193 234 233
356 56 177 58 203 58 1020 1 573 -2 755 -11 764 -18 18 -828 18 -846 0 -9 -9
-12 -167 -14 -689 -1 -659 -3 -719 -21 -792 -28 -110 -97 -163 -204 -156 -60
4 -83 12 -117 38 -39 30 -49 50 -66 135 -14 70 -17 176 -18 767 -1 487 -5 688
-13 696 -12 12 -698 20 -799 10z"/>
</g>
<g transform="translate(0.000000,500.000000) scale(0.100000,-0.100000)"
fill="#9AA30A" stroke="none">
<path d="M3625 3869 c-178 -19 -329 -67 -463 -149 -42 -25 -162 -122 -182
-147 -110 -133 -159 -223 -198 -363 -26 -93 -29 -120 -27 -225 2 -155 7 -183
52 -295 60 -149 171 -259 343 -342 73 -35 121 -50 265 -83 175 -41 179 -43
208 -76 l29 -31 -21 -21 c-29 -29 -136 -33 -236 -7 -97 25 -238 95 -374 187
-76 51 -117 22 -175 -124 -21 -54 -44 -111 -52 -128 -7 -16 -36 -86 -65 -155
-114 -274 -113 -272 -74 -314 21 -23 231 -136 253 -136 4 0 18 -6 32 -13 14
-8 34 -16 45 -19 11 -4 58 -18 105 -32 47 -15 98 -29 114 -32 16 -3 33 -7 36
-9 4 -3 25 -7 46 -10 22 -3 71 -11 109 -17 102 -16 313 -13 445 7 63 10 120
21 125 25 6 4 34 15 64 24 64 21 216 96 248 122 12 11 35 29 50 41 185 143
297 341 328 578 7 54 7 220 -1 249 -4 16 -7 36 -8 45 -3 39 -50 155 -85 208
-39 60 -146 173 -185 195 -120 68 -186 93 -366 136 -158 38 -200 52 -240 78
-42 28 -44 32 -32 51 19 29 81 35 207 18 65 -9 182 -60 285 -125 78 -49 124
-39 157 37 44 96 83 192 83 200 0 4 11 30 24 58 13 27 34 75 46 105 12 30 30
73 40 95 47 109 49 137 15 176 -17 19 -86 54 -220 114 -29 12 -113 39 -225 70
-136 37 -354 52 -525 34z m203 -36 c-21 -2 -57 -2 -80 0 -24 2 -7 4 37 4 44 0
63 -2 43 -4z m-211 -9 c-3 -3 -12 -4 -19 -1 -8 3 -5 6 6 6 11 1 17 -2 13 -5z
m425 -18 c25 0 42 -4 36 -7 -6 -4 8 -10 30 -14 23 -4 47 -3 53 1 7 4 9 3 5 -4
-8 -13 48 -27 66 -16 7 4 10 3 5 -1 -4 -5 20 -19 54 -32 69 -26 83 -28 73 -11
-4 7 -3 8 5 4 6 -4 8 -12 5 -18 -5 -8 -1 -9 10 -5 9 4 15 3 12 -2 -3 -4 6 -13
20 -20 32 -14 47 -14 38 1 -4 7 -3 8 5 4 6 -4 9 -11 7 -15 -6 -10 82 -53 94
-46 12 8 5 -34 -14 -79 -10 -21 -15 -45 -12 -53 3 -8 2 -12 -3 -9 -12 8 -105
-220 -95 -235 4 -7 3 -10 -3 -6 -14 9 -57 -98 -47 -114 4 -7 3 -9 -3 -6 -14 9
-37 -48 -27 -64 4 -7 3 -10 -3 -6 -6 4 -16 -6 -23 -22 -8 -21 -18 -28 -35 -27
-13 0 -23 5 -22 9 6 28 -263 152 -314 145 -16 -3 -26 -1 -23 4 3 4 -9 8 -25 8
-17 0 -31 -5 -31 -11 0 -7 -10 -5 -26 5 -22 15 -33 16 -81 5 -93 -19 -137 -80
-98 -136 21 -30 83 -66 101 -59 8 3 13 2 10 -3 -4 -5 22 -19 56 -30 70 -24
103 -27 92 -9 -4 7 -3 8 5 4 6 -4 8 -12 5 -18 -5 -8 4 -9 27 -5 20 4 29 3 21
-2 -17 -10 101 -36 119 -26 8 6 10 4 4 -5 -6 -10 -1 -12 18 -8 15 3 24 2 22
-3 -6 -8 80 -39 98 -35 7 1 8 1 4 -2 -9 -5 102 -74 121 -75 6 0 10 -2 7 -5 -6
-6 117 -138 126 -135 4 1 6 -5 5 -15 0 -9 4 -16 11 -15 8 2 10 -4 6 -14 -4
-11 -3 -14 5 -9 8 5 10 1 5 -10 -4 -12 -3 -15 5 -10 8 5 10 1 5 -10 -4 -12 -3
-15 5 -10 7 4 10 2 7 -6 -3 -8 1 -32 9 -55 8 -22 17 -66 21 -97 4 -31 11 -53
16 -51 4 3 3 -8 -2 -25 -11 -30 -9 -77 5 -115 6 -16 6 -17 -3 -5 -8 12 -11 8
-11 -20 0 -19 -10 -71 -22 -115 -12 -44 -21 -93 -21 -108 0 -16 -3 -23 -7 -17
-4 7 -12 0 -19 -19 -7 -16 -10 -35 -5 -42 4 -7 3 -10 -4 -5 -6 3 -16 -2 -21
-13 -14 -26 -14 -34 1 -25 7 4 8 3 4 -5 -4 -6 -11 -9 -16 -6 -5 3 -18 -8 -29
-24 -26 -36 -27 -48 -3 -30 15 13 16 12 3 -4 -8 -9 -16 -15 -19 -12 -3 3 -40
-28 -81 -68 -42 -41 -102 -91 -133 -112 -32 -21 -55 -41 -52 -46 3 -5 -1 -6
-9 -3 -8 3 -37 -6 -63 -19 -27 -14 -75 -33 -107 -43 -39 -12 -53 -21 -45 -27
9 -6 7 -7 -6 -3 -10 4 -59 -1 -110 -10 -121 -21 -351 -21 -485 0 -57 9 -113
14 -125 11 -15 -5 -17 -4 -7 3 9 7 -2 13 -40 22 -30 7 -85 24 -123 37 -39 13
-79 21 -90 17 -14 -3 -17 -2 -8 3 8 7 -12 20 -65 43 -120 53 -225 113 -212
121 6 4 8 12 4 19 -5 8 -4 11 2 7 14 -9 45 75 37 99 -4 12 -3 15 3 7 6 -8 12
-4 20 15 93 219 113 275 107 296 -3 14 -2 17 3 8 12 -16 78 142 67 159 -4 7
-3 10 3 6 6 -4 14 0 17 9 6 15 8 15 31 0 29 -19 39 -20 29 -4 -4 7 -3 8 5 4 6
-4 9 -11 6 -16 -8 -13 82 -63 96 -54 8 4 9 3 5 -4 -8 -13 70 -56 85 -47 5 4 8
1 7 -6 -4 -15 122 -66 212 -85 124 -26 212 -14 267 38 24 23 33 91 13 103 -7
4 -8 -3 -4 -22 4 -15 3 -25 -1 -21 -4 4 -8 22 -9 40 -1 29 -8 36 -56 61 -38
19 -64 26 -85 22 -20 -3 -25 -2 -16 4 18 12 -40 25 -70 16 -13 -5 -19 -3 -15
3 7 11 -176 58 -214 55 -17 -2 -21 0 -11 6 11 7 9 10 -8 16 -11 3 -26 3 -32
-1 -7 -4 -9 -3 -6 2 8 13 -90 67 -106 58 -6 -4 -9 -4 -5 1 9 9 -9 35 -24 35
-5 0 -6 -6 -2 -12 4 -7 5 -11 1 -8 -3 3 -6 10 -7 15 -2 14 -31 45 -42 45 -5 0
-6 -4 -3 -10 12 -19 -2 -10 -26 17 -22 25 -22 26 -1 9 12 -11 22 -16 22 -12 0
14 -74 95 -82 90 -4 -3 -5 3 -1 12 4 10 2 15 -4 11 -5 -3 -10 0 -10 7 0 26
-47 125 -56 119 -6 -3 -7 -1 -3 5 8 14 -3 104 -13 98 -3 -2 -6 55 -6 127 0 72
2 122 4 111 2 -10 10 10 17 46 8 36 12 71 9 78 -3 7 -1 11 4 8 11 -7 24 41 15
56 -4 6 -3 8 3 5 5 -3 19 14 31 39 25 51 27 58 10 48 -7 -4 -8 -3 -4 5 4 6 11
9 15 6 12 -7 63 74 55 87 -4 6 -3 8 3 5 13 -8 37 18 29 31 -3 6 2 16 12 23 15
13 16 12 3 -3 -27 -35 2 -17 64 40 34 31 92 75 129 96 36 21 63 43 59 49 -3 6
-1 7 6 3 6 -4 39 4 74 18 151 60 270 77 487 69 91 -3 186 -6 212 -7z m411
-531 c-3 -9 -8 -14 -10 -11 -3 3 -2 9 2 15 9 16 15 13 8 -4z m-753 -160 c-14
-15 -21 -31 -17 -45 3 -11 1 -20 -4 -20 -17 0 -9 44 13 67 12 13 24 23 26 23
3 0 -5 -11 -18 -25z m355 5 c3 -6 -1 -7 -9 -4 -18 7 -21 14 -7 14 6 0 13 -4
16 -10z m-1258 -172 c-3 -7 -5 -2 -5 12 0 14 2 19 5 13 2 -7 2 -19 0 -25z
m1048 12 c3 -5 1 -10 -4 -10 -6 0 -11 5 -11 10 0 6 2 10 4 10 3 0 8 -4 11 -10z
m586 -237 c13 -16 12 -17 -3 -4 -10 7 -18 15 -18 17 0 8 8 3 21 -13z m-1261
-549 c0 -2 -9 0 -20 6 -11 6 -20 13 -20 16 0 2 9 0 20 -6 11 -6 20 -13 20 -16z
m465 -94 c-3 -5 -14 -10 -23 -9 -14 0 -13 2 3 9 27 11 27 11 20 0z m-188 -6
c-3 -3 -12 -4 -19 -1 -8 3 -5 6 6 6 11 1 17 -2 13 -5z m91 -11 c-10 -2 -28 -2
-40 0 -13 2 -5 4 17 4 22 1 32 -1 23 -4z m832 -427 c0 -2 -8 -10 -17 -17 -16
-13 -17 -12 -4 4 13 16 21 21 21 13z m-305 -196 c-3 -5 -12 -10 -18 -10 -7 0
-6 4 3 10 19 12 23 12 15 0z m-178 -56 c-3 -3 -12 -4 -19 -1 -8 3 -5 6 6 6 11
1 17 -2 13 -5z m-494 -11 c-7 -2 -19 -2 -25 0 -7 3 -2 5 12 5 14 0 19 -2 13
-5z m424 1 c-3 -3 -12 -4 -19 -1 -8 3 -5 6 6 6 11 1 17 -2 13 -5z"/>
<path d="M483 3812 c-36 -14 -43 -20 -48 -51 -3 -20 -4 -373 -2 -786 3 -659 5
-761 20 -840 45 -234 103 -349 252 -500 51 -52 165 -145 178 -145 2 0 37 -18
78 -40 138 -77 365 -130 569 -134 83 -2 130 1 275 19 105 12 299 80 388 135
26 16 52 30 57 30 14 0 130 97 184 154 120 126 185 259 227 462 23 107 23 124
27 859 2 514 0 761 -7 786 -19 65 -21 65 -473 64 -221 -1 -412 -4 -424 -8 -11
-4 -28 -23 -37 -42 -15 -32 -17 -99 -17 -706 0 -746 -3 -796 -59 -852 -36 -36
-90 -49 -155 -35 -42 8 -56 17 -78 47 -14 20 -31 61 -36 91 -7 33 -11 325 -12
739 -1 768 2 742 -69 760 -20 5 -207 9 -416 8 -315 0 -387 -3 -422 -15z m864
-109 c-3 -10 -5 -4 -5 12 0 17 2 24 5 18 2 -7 2 -21 0 -30z m1300 15 c-3 -8
-6 -5 -6 6 -1 11 2 17 5 13 3 -3 4 -12 1 -19z m-870 -70 c-3 -8 -6 -5 -6 6 -1
11 2 17 5 13 3 -3 4 -12 1 -19z m870 0 c-3 -8 -6 -5 -6 6 -1 11 2 17 5 13 3
-3 4 -12 1 -19z m-2170 -50 c-2 -13 -4 -3 -4 22 0 25 2 35 4 23 2 -13 2 -33 0
-45z m2170 -10 c-3 -7 -5 -2 -5 12 0 14 2 19 5 13 2 -7 2 -19 0 -25z m-1300
-10 c-3 -8 -6 -5 -6 6 -1 11 2 17 5 13 3 -3 4 -12 1 -19z m-870 -30 c-3 -8 -6
-5 -6 6 -1 11 2 17 5 13 3 -3 4 -12 1 -19z m1300 -20 c-3 -8 -6 -5 -6 6 -1 11
2 17 5 13 3 -3 4 -12 1 -19z m870 -40 c-3 -8 -6 -5 -6 6 -1 11 2 17 5 13 3 -3
4 -12 1 -19z m-1300 -30 c-3 -8 -6 -5 -6 6 -1 11 2 17 5 13 3 -3 4 -12 1 -19z
m1300 -30 c-3 -7 -5 -2 -5 12 0 14 2 19 5 13 2 -7 2 -19 0 -25z m-870 -20 c-3
-8 -6 -5 -6 6 -1 11 2 17 5 13 3 -3 4 -12 1 -19z m-1300 -60 c-3 -7 -5 -2 -5
12 0 14 2 19 5 13 2 -7 2 -19 0 -25z m870 -10 c-3 -8 -6 -5 -6 6 -1 11 2 17 5
13 3 -3 4 -12 1 -19z m430 -10 c-3 -8 -6 -5 -6 6 -1 11 2 17 5 13 3 -3 4 -12
1 -19z m870 0 c-3 -8 -6 -5 -6 6 -1 11 2 17 5 13 3 -3 4 -12 1 -19z m-2170
-40 c-3 -7 -5 -2 -5 12 0 14 2 19 5 13 2 -7 2 -19 0 -25z m2170 -20 c-3 -7 -5
-2 -5 12 0 14 2 19 5 13 2 -7 2 -19 0 -25z m-870 -20 c-3 -8 -6 -5 -6 6 -1 11
2 17 5 13 3 -3 4 -12 1 -19z m-430 -30 c-3 -7 -5 -2 -5 12 0 14 2 19 5 13 2
-7 2 -19 0 -25z m-870 -30 c-3 -7 -5 -2 -5 12 0 14 2 19 5 13 2 -7 2 -19 0
-25z m1300 -20 c-3 -8 -6 -5 -6 6 -1 11 2 17 5 13 3 -3 4 -12 1 -19z m870 0
c-3 -8 -6 -5 -6 6 -1 11 2 17 5 13 3 -3 4 -12 1 -19z m-2170 -30 c-3 -8 -6 -5
-6 6 -1 11 2 17 5 13 3 -3 4 -12 1 -19z m2170 -30 c-3 -7 -5 -2 -5 12 0 14 2
19 5 13 2 -7 2 -19 0 -25z m-1300 -10 c-3 -8 -6 -5 -6 6 -1 11 2 17 5 13 3 -3
4 -12 1 -19z m-870 -45 c-3 -10 -5 -4 -5 12 0 17 2 24 5 18 2 -7 2 -21 0 -30z
m1300 -5 c-3 -8 -6 -5 -6 6 -1 11 2 17 5 13 3 -3 4 -12 1 -19z m870 -40 c-3
-8 -6 -5 -6 6 -1 11 2 17 5 13 3 -3 4 -12 1 -19z m-1300 -30 c-3 -8 -6 -5 -6
6 -1 11 2 17 5 13 3 -3 4 -12 1 -19z m-870 -30 c-3 -7 -5 -2 -5 12 0 14 2 19
5 13 2 -7 2 -19 0 -25z m2170 0 c-3 -7 -5 -2 -5 12 0 14 2 19 5 13 2 -7 2 -19
0 -25z m-870 -20 c-3 -8 -6 -5 -6 6 -1 11 2 17 5 13 3 -3 4 -12 1 -19z m-430
-70 c-3 -8 -6 -5 -6 6 -1 11 2 17 5 13 3 -3 4 -12 1 -19z m430 -10 c-3 -8 -6
-5 -6 6 -1 11 2 17 5 13 3 -3 4 -12 1 -19z m870 0 c-3 -8 -6 -5 -6 6 -1 11 2
17 5 13 3 -3 4 -12 1 -19z m-2170 -40 c-2 -13 -4 -5 -4 17 -1 22 1 32 4 23 2
-10 2 -28 0 -40z m2170 -20 c-3 -7 -5 -2 -5 12 0 14 2 19 5 13 2 -7 2 -19 0
-25z m-870 -20 c-3 -8 -6 -5 -6 6 -1 11 2 17 5 13 3 -3 4 -12 1 -19z m-1300
-35 c-3 -10 -5 -2 -5 17 0 19 2 27 5 18 2 -10 2 -26 0 -35z m870 5 c-3 -7 -5
-2 -5 12 0 14 2 19 5 13 2 -7 2 -19 0 -25z m430 -50 c-3 -8 -6 -5 -6 6 -1 11
2 17 5 13 3 -3 4 -12 1 -19z m870 0 c-3 -8 -6 -5 -6 6 -1 11 2 17 5 13 3 -3 4
-12 1 -19z m-2170 -60 c-3 -7 -5 -2 -5 12 0 14 2 19 5 13 2 -7 2 -19 0 -25z
m2170 0 c-3 -7 -5 -2 -5 12 0 14 2 19 5 13 2 -7 2 -19 0 -25z m-1300 -10 c-3
-8 -6 -5 -6 6 -1 11 2 17 5 13 3 -3 4 -12 1 -19z m430 -50 c-3 -8 -6 -5 -6 6
-1 11 2 17 5 13 3 -3 4 -12 1 -19z m870 -40 c-3 -8 -6 -5 -6 6 -1 11 2 17 5
13 3 -3 4 -12 1 -19z m-2170 -40 c-2 -13 -4 -5 -4 17 -1 22 1 32 4 23 2 -10 2
-28 0 -40z m870 10 c-3 -8 -6 -5 -6 6 -1 11 2 17 5 13 3 -3 4 -12 1 -19z
m1300 -30 c-3 -7 -5 -2 -5 12 0 14 2 19 5 13 2 -7 2 -19 0 -25z m-2160 -220
c-3 -8 -6 -5 -6 6 -1 11 2 17 5 13 3 -3 4 -12 1 -19z m1933 -551 c0 -2 -12
-14 -27 -28 l-28 -24 24 28 c23 25 31 32 31 24z m-1659 -54 c13 -16 12 -17 -3
-4 -10 7 -18 15 -18 17 0 8 8 3 21 -13z"/>
</g>
<g transform="translate(0.000000,500.000000) scale(0.100000,-0.100000)"
fill="#008500" stroke="none">
<path d="M3625 3869 c-178 -19 -329 -67 -463 -149 -42 -25 -162 -122 -182
-147 -110 -133 -159 -223 -198 -363 -26 -93 -29 -120 -27 -225 2 -155 7 -183
52 -295 60 -149 171 -259 343 -342 73 -35 121 -50 265 -83 175 -41 179 -43
208 -76 l29 -31 -21 -21 c-29 -29 -136 -33 -236 -7 -97 25 -238 95 -374 187
-76 51 -117 22 -175 -124 -21 -54 -44 -111 -52 -128 -7 -16 -36 -86 -65 -155
-114 -274 -113 -272 -74 -314 21 -23 231 -136 253 -136 4 0 18 -6 32 -13 14
-8 34 -16 45 -19 11 -4 58 -18 105 -32 47 -15 98 -29 114 -32 16 -3 33 -7 36
-9 4 -3 25 -7 46 -10 22 -3 71 -11 109 -17 102 -16 313 -13 445 7 63 10 120
21 125 25 6 4 34 15 64 24 64 21 216 96 248 122 12 11 35 29 50 41 185 143
297 341 328 578 7 54 7 220 -1 249 -4 16 -7 36 -8 45 -3 39 -50 155 -85 208
-39 60 -146 173 -185 195 -120 68 -186 93 -366 136 -158 38 -200 52 -240 78
-42 28 -44 32 -32 51 19 29 81 35 207 18 65 -9 182 -60 285 -125 78 -49 124
-39 157 37 44 96 83 192 83 200 0 4 11 30 24 58 13 27 34 75 46 105 12 30 30
73 40 95 47 109 49 137 15 176 -17 19 -86 54 -220 114 -29 12 -113 39 -225 70
-136 37 -354 52 -525 34z m525 -82 c74 -19 160 -46 190 -59 30 -14 60 -25 65
-26 6 -1 47 -21 93 -43 81 -41 83 -43 76 -71 -3 -17 -21 -63 -40 -105 -19 -41
-34 -78 -34 -83 0 -5 -16 -43 -35 -84 -19 -41 -35 -78 -35 -82 0 -4 -11 -30
-23 -58 -13 -28 -37 -81 -52 -118 -15 -38 -34 -68 -40 -68 -7 0 -55 25 -106
55 -51 30 -98 55 -103 55 -6 0 -24 7 -39 15 -24 12 -85 29 -172 48 -19 4 -19
5 1 6 75 4 229 -52 344 -126 39 -25 73 -43 76 -40 6 6 118 269 201 472 25 61
47 116 50 123 6 13 -127 80 -255 128 -343 129 -764 124 -1036 -12 -254 -128
-415 -339 -459 -604 -3 -17 -5 -13 -6 13 -2 53 54 207 103 286 65 105 153 196
252 260 62 40 184 97 244 113 19 5 51 14 70 19 76 22 153 27 340 24 186 -2
201 -4 330 -38z m-306 -614 c4 -4 -23 -13 -60 -20 -71 -13 -114 -41 -114 -75
0 -33 95 -107 138 -108 12 0 22 -4 22 -9 0 -6 21 -13 48 -17 26 -3 52 -10 57
-14 8 -6 125 -34 185 -44 8 -1 28 -8 43 -14 16 -7 32 -12 37 -12 18 0 145 -70
175 -96 17 -14 42 -36 56 -48 67 -57 146 -200 173 -311 22 -92 16 -268 -12
-381 -23 -92 -91 -229 -148 -301 -182 -227 -475 -356 -826 -362 -150 -3 -388
33 -532 81 -171 56 -395 161 -404 188 -4 12 -2 13 9 4 8 -7 59 -34 114 -62
272 -135 516 -195 795 -194 338 1 582 93 776 294 146 150 221 329 228 539 6
207 -44 348 -173 483 -97 102 -204 154 -429 206 -293 68 -393 139 -319 225 29
34 141 67 161 48z m-1019 -363 c26 -113 113 -250 206 -323 77 -60 196 -115
312 -144 58 -14 104 -30 101 -34 -2 -4 -17 -4 -32 0 -15 5 -56 17 -92 27 -95
26 -193 68 -247 105 -68 47 -152 128 -174 169 -11 19 -24 42 -29 50 -10 15
-41 85 -46 105 -19 71 -35 249 -26 290 5 19 9 -16 13 -90 4 -66 10 -136 14
-155z m736 -521 c109 -35 148 -70 149 -131 0 -42 -35 -78 -96 -98 -123 -41
-375 41 -609 197 -27 18 -53 29 -56 25 -4 -4 -37 -79 -72 -167 -67 -165 -109
-268 -131 -320 -7 -16 -23 -56 -36 -88 -12 -32 -24 -56 -26 -54 -5 5 26 101
36 111 6 6 10 17 10 26 0 8 10 35 22 60 12 25 25 54 29 65 5 11 26 65 49 120
119 290 114 283 161 247 94 -71 349 -200 369 -187 5 3 11 1 14 -4 10 -16 135
-32 194 -25 38 4 65 13 80 28 25 22 52 67 52 85 0 24 -82 82 -135 95 -5 2 -17
5 -25 8 -8 3 -31 10 -50 16 -23 6 -28 10 -14 11 11 1 50 -8 85 -20z"/>
<path d="M483 3812 c-36 -14 -43 -20 -48 -51 -3 -20 -4 -373 -2 -786 3 -659 5
-761 20 -840 45 -234 103 -349 252 -500 51 -52 165 -145 178 -145 2 0 37 -18
78 -40 138 -77 365 -130 569 -134 83 -2 130 1 275 19 105 12 299 80 388 135
26 16 52 30 57 30 14 0 130 97 184 154 120 126 185 259 227 462 23 107 23 124
27 859 2 514 0 761 -7 786 -19 65 -21 65 -473 64 -221 -1 -412 -4 -424 -8 -11
-4 -28 -23 -37 -42 -15 -32 -17 -99 -17 -706 0 -746 -3 -796 -59 -852 -36 -36
-90 -49 -155 -35 -42 8 -56 17 -78 47 -14 20 -31 61 -36 91 -7 33 -11 325 -12
739 -1 768 2 742 -69 760 -20 5 -207 9 -416 8 -315 0 -387 -3 -422 -15z m850
-41 c8 -8 12 -225 13 -704 1 -380 5 -708 8 -727 23 -120 45 -158 109 -189 95
-46 220 -14 265 68 43 80 44 104 47 839 1 481 6 707 13 714 15 15 830 14 845
-1 12 -12 15 -1411 3 -1516 -13 -112 -16 -130 -36 -208 -32 -123 -44 -150
-103 -239 -199 -297 -543 -456 -974 -447 -254 5 -508 83 -675 207 -230 171
-342 385 -364 697 -8 119 -12 1437 -4 1480 5 28 10 30 55 35 99 10 787 2 798
-9z"/>
</g>

</svg>